<svg width="95" height="91" viewBox="0 0 95 91" fill="none" xmlns="http://www.w3.org/2000/svg">
<rect x="0.5" y="0.5" width="94" height="90" rx="12.5" fill="#141619" stroke="#2F373C"/>
<path d="M57.9091 37.5C57.5909 36.3939 57.1439 35.4167 56.5682 34.5682C55.9924 33.7045 55.2879 32.9773 54.4545 32.3864C53.6364 31.7803 52.697 31.3182 51.6364 31C50.5909 30.6818 49.4318 30.5227 48.1591 30.5227C45.7803 30.5227 43.6894 31.1136 41.8864 32.2955C40.0985 33.4773 38.7045 35.197 37.7045 37.4545C36.7045 39.697 36.2045 42.4394 36.2045 45.6818C36.2045 48.9242 36.697 51.6818 37.6818 53.9545C38.6667 56.2273 40.0606 57.9621 41.8636 59.1591C43.6667 60.3409 45.7955 60.9318 48.25 60.9318C50.4773 60.9318 52.3788 60.5379 53.9545 59.75C55.5455 58.947 56.7576 57.8182 57.5909 56.3636C58.4394 54.9091 58.8636 53.1894 58.8636 51.2045L60.8636 51.5H48.8636V44.0909H68.3409V49.9545C68.3409 54.0455 67.4773 57.5606 65.75 60.5C64.0227 63.4242 61.6439 65.6818 58.6136 67.2727C55.5833 68.8485 52.1136 69.6364 48.2045 69.6364C43.8409 69.6364 40.0076 68.6742 36.7045 66.75C33.4015 64.8106 30.8258 62.0606 28.9773 58.5C27.1439 54.9242 26.2273 50.6818 26.2273 45.7727C26.2273 42 26.7727 38.6364 27.8636 35.6818C28.9697 32.7121 30.5152 30.197 32.5 28.1364C34.4848 26.0758 36.7955 24.5076 39.4318 23.4318C42.0682 22.3561 44.9242 21.8182 48 21.8182C50.6364 21.8182 53.0909 22.2045 55.3636 22.9773C57.6364 23.7348 59.6515 24.8106 61.4091 26.2045C63.1818 27.5985 64.6288 29.2576 65.75 31.1818C66.8712 33.0909 67.5909 35.197 67.9091 37.5H57.9091Z" fill="url(#paint0_radial_105_1178)"/>
<defs>
<radialGradient id="paint0_radial_105_1178" cx="0" cy="0" r="1" gradientUnits="userSpaceOnUse" gradientTransform="translate(44.5 19.5) rotate(87.1087) scale(49.5631 31.5401)">
<stop stop-color="white"/>
<stop offset="1" stop-color="white" stop-opacity="0.68"/>
</radialGradient>
</defs>
</svg>
